<svg xmlns="http://www.w3.org/2000/svg" fill="none" viewBox="0 0 188 27">
  <path fill="url(#a)" d="M21.8 14.3c-.8.7-.8 1.9 0 2.6l5.4 5c.8.8 2 .8 2.8 0 .7-.6.7-1.8 0-2.5l-5.5-5a2 2 0 0 0-2.7 0Z"/>
  <path fill="url(#b)" d="M40.3 12.3c.8-.7.8-1.9 0-2.6a2 2 0 0 0-2.7 0L30 17l-1.4 1.3c-1.7 1.5-4 1.3-4.8.6l3.4 3.2c.8.7 2 .7 2.8 0l10.3-9.7Z"/>
  <path fill="url(#c)" d="M51.3 9.7a2 2 0 0 0-2.7 0L43 15c-.7.7-.7 1.8 0 2.5.8.7 2 .7 2.7 0l5.5-5c.7-.8.7-2 0-2.7Z"/>
  <path fill="url(#d)" d="M30 11.8c.8-.7.8-1.9 0-2.6l-5.5-5.1a2 2 0 0 0-2.7 0c-.7.7-.7 1.8 0 2.6l5.5 5c.7.8 2 .8 2.7 0Z"/>
  <path fill="url(#e)" d="M11.4 13.8c-.7.7-.7 1.9 0 2.6.8.7 2 .7 2.8 0l7.6-7.2L23.2 8c1.7-1.5 4-1.3 4.7-.6l-3.4-3.2a2 2 0 0 0-2.7 0l-10.4 9.7Z"/>
  <path fill="url(#f)" d="M.6 16.4c.7.7 2 .7 2.7 0l5.5-5.1c.7-.8.7-1.9 0-2.6a2 2 0 0 0-2.8 0L.6 13.8c-.8.7-.8 1.9 0 2.6Z"/>
  <path fill="#fff" d="M59 6h3.5v12.8h7.7V22H58.9V6Zm13.3 0H76v16h-3.6V6Zm15 7.2h6.2v7a9 9 0 0 1-3 1.6 11.5 11.5 0 0 1-7.2 0c-1-.4-2-1-2.7-1.7a7.5 7.5 0 0 1-1.6-2.7 10 10 0 0 1 0-6.7 7.8 7.8 0 0 1 4.4-4.5c1-.4 2-.6 3.3-.6 1.5 0 2.7.3 3.8.8 1.1.5 2 1.3 2.8 2.2L90.8 11a7 7 0 0 0-1.7-1.5c-.6-.4-1.3-.6-2.2-.6a4.4 4.4 0 0 0-4.3 3.1 6.3 6.3 0 0 0 0 4.1c.2.6.5 1.2 1 1.6a4.6 4.6 0 0 0 3.4 1.4c.6 0 1.2 0 1.8-.2.5-.2 1-.4 1.4-.8v-2h-2.9v-2.9Zm9-7.2h3.7v6.1h7v-6h3.6V22h-3.7v-6.6H100V22h-3.6V6Zm21.5 3.2h-5.2V6h14v3.2h-5.2V22h-3.6V9.2ZM128.7 6h3.6v12.8h7.6V22h-11.2V6ZM142 6h3.6v16H142V6Zm6.7 0h3.5l6.9 10.4V6h3.6v16h-3.3l-7.1-10.6V22h-3.6V6Zm17 0h3.7v6.4l5.3-6.4h4.2l-5.5 6.2 6.3 9.8h-4.4l-4.3-7-1.6 1.8V22h-3.6V6Z"/>
  <path fill="#6A81FF" d="M181.4 18.2h4V22h-4v-3.8Z"/>
  <defs>
    <linearGradient id="a" x1="16.6" x2="29.9" y1="9.6" y2="23.6" gradientUnits="userSpaceOnUse">
      <stop offset=".1" stop-color="#6978FF"/>
      <stop offset=".2" stop-color="#6087FF"/>
      <stop offset=".3" stop-color="#4DA5FF"/>
      <stop offset=".5" stop-color="#40BAFF"/>
      <stop offset=".7" stop-color="#39C7FF"/>
      <stop offset=".8" stop-color="#36CBFF"/>
      <stop offset="1" stop-color="#67FFFC"/>
    </linearGradient>
    <linearGradient id="b" x1="13.6" x2="52.9" y1="33.4" y2="-9.7" gradientUnits="userSpaceOnUse">
      <stop offset=".4" stop-color="#6978FF"/>
      <stop offset=".4" stop-color="#6284FF"/>
      <stop offset=".6" stop-color="#4AABFF"/>
      <stop offset=".8" stop-color="#3BC2FF"/>
      <stop offset=".9" stop-color="#36CBFF"/>
      <stop offset="1" stop-color="#67FFFC"/>
    </linearGradient>
    <linearGradient id="c" x1="50.3" x2="19.5" y1="10.9" y2="41.4" gradientUnits="userSpaceOnUse">
      <stop offset="0" stop-color="#6978FF"/>
      <stop offset=".1" stop-color="#6087FF"/>
      <stop offset=".3" stop-color="#4DA5FF"/>
      <stop offset=".5" stop-color="#40BAFF"/>
      <stop offset=".6" stop-color="#39C7FF"/>
      <stop offset=".8" stop-color="#36CBFF"/>
      <stop offset="1" stop-color="#67FFFC"/>
    </linearGradient>
    <linearGradient id="d" x1="23.8" x2="28.4" y1="5.3" y2="11.8" gradientUnits="userSpaceOnUse">
      <stop offset=".1" stop-color="#6978FF"/>
      <stop offset=".2" stop-color="#6087FF"/>
      <stop offset=".3" stop-color="#4DA5FF"/>
      <stop offset=".5" stop-color="#40BAFF"/>
      <stop offset=".7" stop-color="#39C7FF"/>
      <stop offset=".8" stop-color="#36CBFF"/>
      <stop offset="1" stop-color="#67FFFC"/>
    </linearGradient>
    <linearGradient id="e" x1="4.9" x2="23.4" y1="26.9" y2="3.7" gradientUnits="userSpaceOnUse">
      <stop offset=".3" stop-color="#6978FF"/>
      <stop offset=".4" stop-color="#6087FF"/>
      <stop offset=".5" stop-color="#4DA5FF"/>
      <stop offset=".6" stop-color="#40BAFF"/>
      <stop offset=".7" stop-color="#39C7FF"/>
      <stop offset=".8" stop-color="#36CBFF"/>
      <stop offset="1" stop-color="#67FFFC"/>
    </linearGradient>
    <linearGradient id="f" x1="24.3" x2="4.4" y1="-8.5" y2="15.7" gradientUnits="userSpaceOnUse">
      <stop offset="0" stop-color="#6978FF"/>
      <stop offset=".1" stop-color="#6087FF"/>
      <stop offset=".3" stop-color="#4DA5FF"/>
      <stop offset=".5" stop-color="#40BAFF"/>
      <stop offset=".6" stop-color="#39C7FF"/>
      <stop offset=".8" stop-color="#36CBFF"/>
      <stop offset="1" stop-color="#67FFFC"/>
    </linearGradient>
  </defs>
</svg>